<?xml version="1.0" encoding="utf-8"?>
<!-- Generator: Adobe Illustrator 24.1.0, SVG Export Plug-In . SVG Version: 6.00 Build 0)  -->
<svg version="1.0" id="Layer_1" xmlns="http://www.w3.org/2000/svg" xmlns:xlink="http://www.w3.org/1999/xlink" x="0px" y="0px"
	 viewBox="0 0 301 382" enable-background="new 0 0 301 382" xml:space="preserve">
<path opacity="0.65" fill="#6F9A8D" d="M89,103c0,0-90.51,16.93-74,138c1.02,7.46,2.47,19.47,12,40c5.63,12.13,12.93,17.77,23,36
	c21,38,30.47,55,64,55c14,0,21-10,25-12c2-1,14,0,14,0c4,5,28,19,69-4c0,0,16.19-10.48,33-39c34.16-57.98,60-166-22.5-212.5
	c0,0-19.5-5.5-27.5-4.5c-25.82,3.23-91,24-32-17c0,0,3.53-3.38,13-5c13.04-2.24,33.5-4.19,41-7c8-3,37.16-6.97,47-19
	c5.24-6.41-0.21-14.35-1-20c-0.56-4.05,4-7,4-7s-25.57-2.49-34-4c-8.54-1.53-20.37-7.12-29-8c-5.97-0.61-27.93-0.85-37,1
	c-6.02,1.23-15.04,5.52-22,11c-7.92,6.23-11,30-5,40c6.22,10.36,12.59,12.17,14,15c1,2-12.01,13.22-12.01,13.22L136,101
	c0,0-5.27-5.04-8-11c-2.87-6.26-3.3-13.46-7-14c-4.03-0.58-12,4-12,10c0,1,18,17,17,19l-15-1L89,103z"/>
</svg>
