<?xml version="1.0" encoding="utf-8"?>
<!-- Generator: Adobe Illustrator 24.1.0, SVG Export Plug-In . SVG Version: 6.00 Build 0)  -->
<svg version="1.1" id="Layer_1" xmlns="http://www.w3.org/2000/svg" xmlns:xlink="http://www.w3.org/1999/xlink" x="0px" y="0px"
	 viewBox="0 0 315 207" style="enable-background:new 0 0 315 207;" xml:space="preserve">
<style type="text/css">
	.st0{opacity:0.65;fill:#6F9A8D;}
</style>
<path class="st0" d="M8.8,99.2l-1.78,1.78c-0.34,0.34-0.52,0.79-0.52,1.26v2.47c0,0.99-0.8,1.79-1.79,1.79h0
	c-0.73,0-1.39,0.45-1.66,1.12l-1.42,3.56c-0.08,0.21-0.13,0.44-0.13,0.66V118c0,0.33,0.09,0.65,0.26,0.93
	c2.09,3.45,18.62,24.66,27.74,32.57c30,26,101,49,126,52c48.81,5.86,85.33,0.28,126-37c16.51-15.13,32.42-32.54,33-63
	c0-0.19-0.51-8.06-1-10c-1-4-15.2-33.77-12.22-38.72c0.16-0.26,0.21-0.56,0.2-0.86c-0.08-3.26-0.11-19.5,6.59-23.75
	c0.68-0.43,1.03-1.25,0.79-2.02c-0.67-2.11-0.99-6.77,4.38-14.3c0.16-0.23,0.28-0.5,0.32-0.78l0.78-5.49
	c0.1-0.67-0.19-1.33-0.75-1.72l-7.72-5.4c-0.77-0.54-1.82-0.39-2.41,0.33c-2,2.45-6.77,7.95-13.17,13.07
	c-0.46,0.37-0.72,0.93-0.68,1.51c0.11,1.36,0.04,4.15-1.75,7.45c-0.23,0.43-0.65,0.74-1.13,0.85l-2.36,0.59
	c-0.56,0.14-1.02,0.54-1.23,1.08c0,0,1.34,22.14-3.66,39.14c-0.02,0.07-21.96,36.94-22,37c-4.55,6.75-15.62,18.47-23,24
	c-4,3-16,9-24,11c-19.15,4.79-41,8-71,1c-32.12-7.5-85-34-93-36c-4.11-1.03-15.47-3.57-23-4c-8.53-0.48-13,1-13,1
	C9.9,98.36,9.24,98.76,8.8,99.2z"/>
</svg>
