<svg id="Layer_1" data-name="Layer 1" xmlns="http://www.w3.org/2000/svg" viewBox="0 0 147.63 180.49"><defs><style>.cls-1{fill:#6f9a8d;opacity:0.65;}</style></defs><path class="cls-1" d="M106,101s18,10,24-28c0,0,22,8,17-4s14-4-6-35c0,0,1-20-26-15A36.14,36.14,0,0,0,92,6S74,5,72,7C72,7,46-6,40,22c0,0-19-5-29,14,0,0-25,24,12,30,0,0-6,27,23,27,0,0,20,35,17,45,0,0-3,2-1,6l-1,7H59l-2,4,2,3s3,3-1,17c0,0-3,7,15,9,0,0,19,3,24-6,0,0,2,1,0-8,0,0-1-10,0-11a25.1,25.1,0,0,1-2-4c-.49-1.84,1-6,1-6s-5-9-1-15c0,0-1-3,2-8,0,0-1-19,9-25" transform="translate(-2.74 -3.99)"/></svg>