<svg id="Layer_1" data-name="Layer 1" xmlns="http://www.w3.org/2000/svg" viewBox="0 0 70.75 47.01"><defs><style>.cls-1{fill:#6f9a8d;}</style></defs><path class="cls-1" d="M10,29S12,14,31.69,11.8C40.38,10.84,57,9,67,26Z" transform="translate(-2.86 -11.21)"/><path class="cls-1" d="M12,47s-4,3,0,9c0,0,37,5,55,0,0,0,3-6-1-9C66,47,31,48,12,47Z" transform="translate(-2.86 -11.21)"/><path class="cls-1" d="M64.77,40.61S71,41.49,66,46.49c0,0-50,.51-55-.49,0,0-2-2,0-5C11,41,63.62,39.76,64.77,40.61Z" transform="translate(-2.86 -11.21)"/><path class="cls-1" d="M9.17,30.68a1.3,1.3,0,0,0,.44.54c.5.31,1.16,0,1.52-.51a5.55,5.55,0,0,1,1.06-1.34c.87-.58,2.08-.11,3,.46s1.52.06,2.58-.11c1.29-.2,1.69-1.32,3-1.32,1,0,2.36,1,3.39,1,.84.05,1.62-1.46,2.43-1.69,1.9-.55,4,1.29,5.95,1.23,1.12,0,2.41-1,3.53-1,1.65,0,3.11,1.63,4.63,1,.72-.3,1-.93,1.56-1.4s2,.14,2.68.44,1.19,1.68,1.77,1.23.65-1.81,1.3-1.89,2.59.64,3.25.62c1.13,0,.91-.44,2-.78a15.59,15.59,0,0,1,3.2-.51l4.9-.43a8.87,8.87,0,0,1,3.91.25c.92.36,1.77,1,2.76,1,.47,0,.91-.22,1.37-.29,1.44-.23,2.75.73,3.86,1.62a1.11,1.11,0,0,1,.37.44c.19.65-.85.86-1.46,1.2-.9.52-.9,1.79-.5,2.72a12.82,12.82,0,0,1,1.29,2.73c.17,1-.54,2.24-1.58,2.1a2.63,2.63,0,0,1-1.2-.68A15.64,15.64,0,0,0,66,34.91a5.62,5.62,0,0,0-2.61-.48c-.89.1-1.17,1.41-2,1.46-1.55.08-2.15-2.44-3.76-2.52-.9,0-2.25,1.25-3.13,1.46-4,.93-3.17.84-7.29.6a21.82,21.82,0,0,1-3.35-.09c-.29-.21-5.83,2.62-6.63,2.23a25.78,25.78,0,0,0-5.72-2.19c-1.72-.29-3,2.16-4.72,1.75-1.08-.27-1.49-1.57-2.43-2.16a4.06,4.06,0,0,0-3.44.05A30,30,0,0,1,15,36.9c-1.86.24-3.84-.07-5.55.66-1.39.6-2.62,1.88-4.14,1.69a2.92,2.92,0,0,1-2.26-2.1A7.86,7.86,0,0,1,3,34a1.81,1.81,0,0,1,.29-1c.39-.49,1.17-.51,1.71-.84.78-.48.93-1.47,1.3-2.28s1.43-1.55,2.14-1A18.9,18.9,0,0,0,9.17,30.68Z" transform="translate(-2.86 -11.21)"/><path class="cls-1" d="M9.38,36.86a3.46,3.46,0,0,0,0,3.28s15.49-2,23.37-.25c0,0,1.68-2.67.44-3.52C33.19,36.37,12.13,34.86,9.38,36.86Z" transform="translate(-2.86 -11.21)"/><path class="cls-1" d="M31.4,39.63a3.39,3.39,0,0,1-.1-3.3S47,37.87,54.9,36.07c0,0,1.68,2.68.44,3.52C55.34,39.59,34.15,41.63,31.4,39.63Z" transform="translate(-2.86 -11.21)"/><path class="cls-1" d="M46,36.86a3.49,3.49,0,0,0,0,3.28s15.5-2,23.37-.25c0,0,1.69-2.67.45-3.52C69.77,36.37,48.7,34.86,46,36.86Z" transform="translate(-2.86 -11.21)"/></svg>