<svg id="Layer_1" data-name="Layer 1" xmlns="http://www.w3.org/2000/svg" viewBox="0 0 158.46 422.98"><defs><style>.cls-1{fill:#6f9a8d;opacity:0.65;}</style></defs><path class="cls-1" d="M56.5,166.5s-18-5-23,23a85,85,0,0,0-5,13c-.92,3.21,0,5-2,14a24.18,24.18,0,0,0,0,16s-3,4-1,18c0,0-2,28,3,30,0,0,2,0-1,5l4,42s3,4,2,18c0,0,4,4,2,17,0,0,0,15,5,14,0,0-3,10,3,15,0,0-4,8,2,13,0,0,0,6,3,8,0,0,7,13,8,17,0,0,5,2,7,0,0,0,13-19,10-34,0,0,5-20-1-26,0,0,2-5,0-15l2-48,1-31s4-1,2-14c0,0,5-4,2-24a33.22,33.22,0,0,1,4-18s3-21-1-24c0,0,9-25-11-26,0,0,0-21,17-34,0,0,15,11,44-7,0,0-16-7-32-3,0,0,75-16,71-76,0,0-53-10-71,15,0,0,9-33-5-48,0,0-25-11-32,19,0,0-12-30-42-28,0,0-10.2,26.8-8,52,1.32,15.12,11,22,28,27l6,2s18,14,14,75C61.5,163.5,59.5,168.5,56.5,166.5Z" transform="translate(-13.19 -7.4)"/></svg>