<svg id="Layer_1" data-name="Layer 1" xmlns="http://www.w3.org/2000/svg" viewBox="0 0 455.75 276"><defs><style>.cls-1{fill:#6f9a8d;}</style></defs><path class="cls-1" d="M423,19S347.81-1.73,323,4C297,10,5.2,206.9,4,208c-5.11,4.71,14.5,27.5,14.5,27.5S101.8,279,112,279c33,0,343-73,345.5-75.5C463.09,197.91,452,61,423,19Zm-49.11,1c4.14-4.4,14.7-12.08,28.34.75,7.85,7.38-11.54,13.25-18.69,10.45C375.6,28.09,367.48,26.81,373.89,20ZM269.13,69c6.14-6.53,21.81-17.94,42.05,1.1,11.65,11-17.12,19.67-27.74,15.52C271.66,81.05,259.61,79.15,269.13,69ZM252.24,49.67c3.88-1.2,7.29-3.15,6.93,1.3-.23,2.88-1.88,8.89-10.78,8.17C243.26,58.73,248.74,50.76,252.24,49.67ZM243.42,132c-.23,2.88-1.88,8.89-10.78,8.17-5.13-.41.34-8.38,3.85-9.47C240.37,129.52,243.78,127.57,243.42,132Zm-71.71.29c4.14-4.4,14.7-12.08,28.34.75,7.85,7.38-11.54,13.25-18.69,10.45C173.42,140.41,165.3,139.13,171.71,132.31ZM98.81,168c4.08-4.33,14.47-11.9,27.91.73,7.73,7.28-11.36,13.06-18.41,10.3C100.49,176,92.5,174.72,98.81,168ZM18.53,225.39c-1.46-.42-4.4-1.9-3.09-6.44.76-2.61,4.3,1.06,4.5,3C20.16,224.08,20.8,226.05,18.53,225.39Zm15.58,13.75c-2.74-.79-8.25-3.57-5.8-12.07,1.42-4.9,8.07,2,8.43,5.6C37.14,236.68,38.36,240.37,34.11,239.14Zm13.07-3c-1.46-.42-4.4-1.91-3.09-6.44.75-2.62,4.3,1.06,4.49,3C48.8,234.84,49.45,236.81,47.18,236.15Zm15.08,18.66c-2.74-.79-8.25-3.57-5.79-12.08,1.41-4.89,8.06,2,8.43,5.61C65.3,252.35,66.51,256,62.26,254.81ZM41.44,216.66c-11.78-4.61-23.83-6.51-14.31-16.62,6.14-6.53,21.81-17.94,42.05,1.1C80.83,212.1,52.06,220.81,41.44,216.66Zm34.44,32.45c-1.52-.44-4.57-2-3.21-6.7.78-2.71,4.47,1.11,4.67,3.11C77.57,247.74,78.24,249.79,75.88,249.11Zm13.38,12.7c-2.74-.79-8.25-3.57-5.79-12.08,1.41-4.89,8.06,2,8.43,5.61C92.3,259.35,93.51,263,89.26,261.81Zm19.07,11c-1.52-.43-4.57-2-3.21-6.69.78-2.72,4.47,1.1,4.67,3.11C110,271.41,110.69,273.46,108.33,272.77Zm-.09-47.5c-7.93-3.11-16-4.38-9.64-11.2,4.14-4.4,14.69-12.08,28.33.75C134.79,222.2,115.4,228.07,108.24,225.27Zm36.43,41.39c-5.25-4.09-8.94-16.31,7.36-24.19,4.25-2.06,9.47,2.61,9.47,15.25C161.5,266.13,149.4,270.34,144.67,266.66ZM155,187.27c-11.78-4.61-23.83-6.5-14.31-16.62,6.14-6.53,21.8-17.93,42,1.1C194.36,182.71,165.59,191.42,155,187.27Zm30.42,41.47c-5.25-4.08-8.94-16.3,7.36-24.19,4.25-2.06,9.47,2.62,9.47,15.25C202.22,228.21,190.12,232.42,185.39,228.74Zm24.05-113.08c-11.78-4.61-23.83-6.51-14.31-16.62,6.14-6.53,21.81-17.94,42.05,1.1C248.83,111.1,220.06,119.81,209.44,115.66ZM233.5,229.45c-10-7.77-17-31,14-46,8.07-3.9,18,5,18,29C265.5,228.45,242.5,236.45,233.5,229.45ZM272,100.51c-.23,2.87-1.88,8.88-10.78,8.17-5.13-.42.34-8.38,3.85-9.47C269,98,272.36,96.06,272,100.51Zm12.5,71.94c-10-7.77-17-31,14-46,8.07-3.9,18,5,18,29C316.5,171.45,293.5,179.45,284.5,172.45Zm25.39,50c-5.25-4.09-8.94-16.31,7.36-24.2,4.25-2.05,9.47,2.62,9.47,15.26C326.72,221.92,314.62,226.13,309.89,222.45ZM321.18,40.17c-11.77-4.62-23.82-6.51-14.31-16.63C313,17,328.68,5.61,348.92,24.65,360.57,35.61,331.8,44.32,321.18,40.17Zm20.71,87.28c-5.25-4.09-8.94-16.31,7.36-24.2,4.25-2,9.47,2.62,9.47,15.26C358.72,126.92,346.62,131.13,341.89,127.45Zm21.61,60c-10-7.77-17-31,14-46,8.07-3.9,18,5,18,29C395.5,186.45,372.5,194.45,363.5,187.45ZM389,107c-10-7.77-17-31,14-46,8.07-3.9,18,5,18,29C421,106,398,114,389,107Zm36.89,87.45c-5.25-4.09-8.94-16.31,7.36-24.2,4.25-2.05,9.47,2.62,9.47,15.26C442.72,193.92,430.62,198.13,425.89,194.45Z" transform="translate(-3.15 -3)"/></svg>