<svg xmlns="http://www.w3.org/2000/svg" viewBox="0 0 254.74 427.69"><defs><style>.cls-1{opacity:0.65;}.cls-2,.cls-3{fill:#6f9a8d;}.cls-3{stroke:#ffd58a;stroke-miterlimit:10;}</style></defs><g id="Layer_1" data-name="Layer 1" class="cls-1"><g id="fish"><g id="little_fins" data-name="little fins"><path class="cls-2" d="M129.06,196.72s22.18,33.11-18.4,65.56c-.26.2-.64,0-.5-.33,2.83-6.14,15.16-35,2-45.67A213.35,213.35,0,0,0,129.06,196.72Z" transform="translate(-14.26 -8.31)"/><path class="cls-2" d="M57.81,184.92s-41.66,4.57-43.55,54.32a.32.32,0,0,0,.59.16c3.39-5.89,19.92-32.88,37.1-30A196.53,196.53,0,0,1,57.81,184.92Z" transform="translate(-14.26 -8.31)"/></g><g id="right_big_fin" data-name="right big fin"><path class="cls-3" d="M129.23,63.26c-9.09-6.42-41.39-10.63-41.39-10.63L75.13,51.58c-2.24-.36-2.36-.42-6.84-3C64.25,46.25,42.8,25.77,39.81,20a2.58,2.58,0,0,1,1.35-3.53c70.2-30.15,99.83,38,99.83,38Z" transform="translate(-14.26 -8.31)"/></g><g id="left_big_fin" data-name="left big fin"><path class="cls-2" d="M216.25,148.43c6.6,5.18-2.13,32.73-7.21,44.92a14,14,0,0,0,.91,12.76c4.94,8.12,13.37,18.91,17.08,23.56a1.71,1.71,0,0,0,2.84-.53c13.66-27.17,18.06-35.57,20.88-38.89a7.5,7.5,0,0,0,1.8-4.39c1.11-16.28-18.38-46.94-18.38-46.94l-17.92,9.51" transform="translate(-14.26 -8.31)"/></g><path id="body" class="cls-2" d="M79.68,331.27c-1.25-4.07-8.9-71,45.65-129.1,12.32-13.12,109.1-63.29,109.1-63.29,39.15-32,38.67-56.4,29.3-73.2S205.1-5.91,117.58,73.4,43.51,338.81,43.51,338.81l0,.24C-3.74,388.73,25.17,436,25.17,436c3-.52,37-10.5,49.66-39.26.66-1.5,35,17.16,86.94,5,1-.23,1.07-.64.83-1.19-20.32-46-55.66-61.58-82.79-68.79a.11.11,0,0,1-.07-.06Z" transform="translate(-14.26 -8.31)"/></g></g></svg>